<mxfile host="app.diagrams.net" modified="2021-06-30T14:30:59.024Z" agent="5.0 (Windows NT 10.0; Win64; x64) AppleWebKit/537.36 (KHTML, like Gecko) Chrome/91.0.4472.77 Safari/537.36" etag="w9TBqZozRCZCdjb2holH" version="14.6.5" type="github">
  <diagram id="R-5-6V9GteGtoMgAYk9a" name="Page-1">
    <mxGraphModel dx="1038" dy="489" grid="1" gridSize="10" guides="1" tooltips="1" connect="1" arrows="1" fold="1" page="1" pageScale="1" pageWidth="827" pageHeight="1169" math="0" shadow="0">
      <root>
        <mxCell id="0" />
        <mxCell id="1" parent="0" />
        <mxCell id="22jzKTK2Y5X5y6aqijWc-55" value="" style="rounded=0;whiteSpace=wrap;html=1;" vertex="1" parent="1">
          <mxGeometry x="40" y="30" width="780" height="450" as="geometry" />
        </mxCell>
        <mxCell id="22jzKTK2Y5X5y6aqijWc-30" style="edgeStyle=orthogonalEdgeStyle;rounded=0;orthogonalLoop=1;jettySize=auto;html=1;exitX=1;exitY=0.5;exitDx=0;exitDy=0;" edge="1" parent="1" source="22jzKTK2Y5X5y6aqijWc-2">
          <mxGeometry relative="1" as="geometry">
            <mxPoint x="400" y="110" as="targetPoint" />
          </mxGeometry>
        </mxCell>
        <mxCell id="22jzKTK2Y5X5y6aqijWc-2" value="EXTRACT HU INFO FROM MES / XML" style="rounded=0;whiteSpace=wrap;html=1;" vertex="1" parent="1">
          <mxGeometry x="163.15999999999997" y="80" width="120" height="60" as="geometry" />
        </mxCell>
        <mxCell id="22jzKTK2Y5X5y6aqijWc-9" value="1st off #N" style="text;html=1;align=center;verticalAlign=middle;resizable=0;points=[];autosize=1;strokeColor=none;" vertex="1" parent="1">
          <mxGeometry x="185" y="50" width="70" height="20" as="geometry" />
        </mxCell>
        <mxCell id="22jzKTK2Y5X5y6aqijWc-27" value="" style="html=1;aspect=fixed;strokeColor=none;shadow=0;align=center;verticalAlign=top;fillColor=#3B8DF1;shape=mxgraph.gcp2.arrow_cycle" vertex="1" parent="1">
          <mxGeometry x="60" y="150" width="326.32" height="310" as="geometry" />
        </mxCell>
        <mxCell id="22jzKTK2Y5X5y6aqijWc-33" style="edgeStyle=orthogonalEdgeStyle;rounded=0;orthogonalLoop=1;jettySize=auto;html=1;exitX=1;exitY=0.5;exitDx=0;exitDy=0;entryX=0;entryY=0.5;entryDx=0;entryDy=0;" edge="1" parent="1" source="22jzKTK2Y5X5y6aqijWc-28" target="22jzKTK2Y5X5y6aqijWc-34">
          <mxGeometry relative="1" as="geometry">
            <mxPoint x="540" y="190" as="targetPoint" />
          </mxGeometry>
        </mxCell>
        <mxCell id="22jzKTK2Y5X5y6aqijWc-39" style="edgeStyle=orthogonalEdgeStyle;rounded=0;orthogonalLoop=1;jettySize=auto;html=1;exitX=0.5;exitY=1;exitDx=0;exitDy=0;entryX=0;entryY=0.5;entryDx=0;entryDy=0;" edge="1" parent="1" source="22jzKTK2Y5X5y6aqijWc-28" target="22jzKTK2Y5X5y6aqijWc-38">
          <mxGeometry relative="1" as="geometry" />
        </mxCell>
        <mxCell id="22jzKTK2Y5X5y6aqijWc-28" value="IS HU IN REPO?" style="rhombus;whiteSpace=wrap;html=1;" vertex="1" parent="1">
          <mxGeometry x="400" y="70" width="80" height="80" as="geometry" />
        </mxCell>
        <mxCell id="22jzKTK2Y5X5y6aqijWc-29" value="HU REPO" style="shape=cylinder3;whiteSpace=wrap;html=1;boundedLbl=1;backgroundOutline=1;size=15;" vertex="1" parent="1">
          <mxGeometry x="195" y="250" width="60" height="80" as="geometry" />
        </mxCell>
        <mxCell id="22jzKTK2Y5X5y6aqijWc-32" value="NO" style="text;html=1;align=center;verticalAlign=middle;resizable=0;points=[];autosize=1;strokeColor=none;" vertex="1" parent="1">
          <mxGeometry x="410" y="160" width="30" height="20" as="geometry" />
        </mxCell>
        <mxCell id="22jzKTK2Y5X5y6aqijWc-36" style="edgeStyle=orthogonalEdgeStyle;rounded=0;orthogonalLoop=1;jettySize=auto;html=1;exitX=1;exitY=0.5;exitDx=0;exitDy=0;" edge="1" parent="1" source="22jzKTK2Y5X5y6aqijWc-34">
          <mxGeometry relative="1" as="geometry">
            <mxPoint x="740" y="110" as="targetPoint" />
          </mxGeometry>
        </mxCell>
        <mxCell id="22jzKTK2Y5X5y6aqijWc-34" value="Exclude HU from 1st Off" style="rounded=0;whiteSpace=wrap;html=1;" vertex="1" parent="1">
          <mxGeometry x="570" y="80" width="120" height="60" as="geometry" />
        </mxCell>
        <mxCell id="22jzKTK2Y5X5y6aqijWc-35" value="YES" style="text;html=1;align=center;verticalAlign=middle;resizable=0;points=[];autosize=1;strokeColor=none;" vertex="1" parent="1">
          <mxGeometry x="500" y="90" width="40" height="20" as="geometry" />
        </mxCell>
        <mxCell id="22jzKTK2Y5X5y6aqijWc-37" value="No 1st off required:&lt;br&gt;EXIT" style="text;html=1;align=center;verticalAlign=middle;resizable=0;points=[];autosize=1;strokeColor=none;" vertex="1" parent="1">
          <mxGeometry x="700" y="80" width="120" height="30" as="geometry" />
        </mxCell>
        <mxCell id="22jzKTK2Y5X5y6aqijWc-41" style="edgeStyle=orthogonalEdgeStyle;rounded=0;orthogonalLoop=1;jettySize=auto;html=1;exitX=0.5;exitY=1;exitDx=0;exitDy=0;entryX=0.5;entryY=0;entryDx=0;entryDy=0;" edge="1" parent="1" source="22jzKTK2Y5X5y6aqijWc-38" target="22jzKTK2Y5X5y6aqijWc-40">
          <mxGeometry relative="1" as="geometry" />
        </mxCell>
        <mxCell id="22jzKTK2Y5X5y6aqijWc-38" value="Flag HU for 1st Off / Validation" style="rounded=0;whiteSpace=wrap;html=1;" vertex="1" parent="1">
          <mxGeometry x="480" y="160" width="120" height="60" as="geometry" />
        </mxCell>
        <mxCell id="22jzKTK2Y5X5y6aqijWc-42" style="edgeStyle=orthogonalEdgeStyle;rounded=0;orthogonalLoop=1;jettySize=auto;html=1;exitX=0;exitY=0.5;exitDx=0;exitDy=0;entryX=1;entryY=0.5;entryDx=0;entryDy=0;entryPerimeter=0;" edge="1" parent="1" source="22jzKTK2Y5X5y6aqijWc-40" target="22jzKTK2Y5X5y6aqijWc-29">
          <mxGeometry relative="1" as="geometry" />
        </mxCell>
        <mxCell id="22jzKTK2Y5X5y6aqijWc-46" style="edgeStyle=orthogonalEdgeStyle;rounded=0;orthogonalLoop=1;jettySize=auto;html=1;exitX=1;exitY=0.5;exitDx=0;exitDy=0;" edge="1" parent="1" source="22jzKTK2Y5X5y6aqijWc-40" target="22jzKTK2Y5X5y6aqijWc-45">
          <mxGeometry relative="1" as="geometry" />
        </mxCell>
        <mxCell id="22jzKTK2Y5X5y6aqijWc-40" value="1st off process, Component (HU)Okay?" style="rounded=0;whiteSpace=wrap;html=1;" vertex="1" parent="1">
          <mxGeometry x="480" y="260" width="120" height="60" as="geometry" />
        </mxCell>
        <mxCell id="22jzKTK2Y5X5y6aqijWc-43" value="Add HU Info" style="text;html=1;align=center;verticalAlign=middle;resizable=0;points=[];autosize=1;strokeColor=none;" vertex="1" parent="1">
          <mxGeometry x="390" y="270" width="80" height="20" as="geometry" />
        </mxCell>
        <mxCell id="22jzKTK2Y5X5y6aqijWc-51" style="edgeStyle=orthogonalEdgeStyle;rounded=0;orthogonalLoop=1;jettySize=auto;html=1;entryX=0.365;entryY=0.97;entryDx=0;entryDy=0;entryPerimeter=0;" edge="1" parent="1" source="22jzKTK2Y5X5y6aqijWc-44" target="22jzKTK2Y5X5y6aqijWc-50">
          <mxGeometry relative="1" as="geometry">
            <Array as="points">
              <mxPoint x="440" y="389" />
            </Array>
          </mxGeometry>
        </mxCell>
        <mxCell id="22jzKTK2Y5X5y6aqijWc-44" value="YES" style="text;html=1;align=center;verticalAlign=middle;resizable=0;points=[];autosize=1;strokeColor=none;" vertex="1" parent="1">
          <mxGeometry x="420" y="295" width="40" height="20" as="geometry" />
        </mxCell>
        <mxCell id="22jzKTK2Y5X5y6aqijWc-45" value="STOP!" style="text;html=1;align=center;verticalAlign=middle;resizable=0;points=[];autosize=1;strokeColor=none;" vertex="1" parent="1">
          <mxGeometry x="700" y="280" width="50" height="20" as="geometry" />
        </mxCell>
        <mxCell id="22jzKTK2Y5X5y6aqijWc-47" value="NO" style="text;html=1;align=center;verticalAlign=middle;resizable=0;points=[];autosize=1;strokeColor=none;" vertex="1" parent="1">
          <mxGeometry x="605" y="270" width="30" height="20" as="geometry" />
        </mxCell>
        <mxCell id="22jzKTK2Y5X5y6aqijWc-50" value="EXIT" style="text;html=1;align=center;verticalAlign=middle;resizable=0;points=[];autosize=1;strokeColor=none;" vertex="1" parent="1">
          <mxGeometry x="730" y="370" width="40" height="20" as="geometry" />
        </mxCell>
        <mxCell id="22jzKTK2Y5X5y6aqijWc-52" value="Incorrect Part / Other" style="text;html=1;align=center;verticalAlign=middle;resizable=0;points=[];autosize=1;strokeColor=none;" vertex="1" parent="1">
          <mxGeometry x="645" y="260" width="130" height="20" as="geometry" />
        </mxCell>
        <mxCell id="22jzKTK2Y5X5y6aqijWc-53" value="1st off process completed" style="text;html=1;align=center;verticalAlign=middle;resizable=0;points=[];autosize=1;strokeColor=none;" vertex="1" parent="1">
          <mxGeometry x="670" y="350" width="150" height="20" as="geometry" />
        </mxCell>
      </root>
    </mxGraphModel>
  </diagram>
</mxfile>
